<svg width="21" height="22" viewBox="0 0 21 22" fill="none" xmlns="http://www.w3.org/2000/svg">
<path d="M19.5 0H1.5C0.65625 0 0 0.703125 0 1.5V4.5C0 5.34375 0.65625 6 1.5 6V20.25C1.5 20.625 1.73438 20.9531 2.10938 21C2.57812 21.0938 3 20.7188 3 20.25V18H13.5V20.25C13.5 20.6719 13.8281 21 14.2031 21C14.5781 21 15 20.6719 15 20.25V18H18V20.25C18 20.625 18.2344 20.9531 18.6094 21C19.0781 21.0938 19.5 20.7188 19.5 20.25V6C20.2969 6 21 5.34375 21 4.5V1.5C21 0.703125 20.2969 0 19.5 0ZM6 10.5H3V6H6V10.5ZM3 16.5V12H9V16.5H3ZM18 16.5H10.5V12H18V16.5ZM18 10.5H7.5V6H18V10.5ZM19.5 4.5H1.5V1.5H19.5V4.5Z" fill="#5C8EE6"/>
</svg>
