<svg width="30" height="24" viewBox="0 0 30 24" fill="none" xmlns="http://www.w3.org/2000/svg">
<path d="M15.7969 12.75C14.1562 12.75 12.2344 13.4062 10.875 14.3906C9.75 15.1875 8.8125 15.9844 6 15.9844H3C1.3125 15.9844 0 17.4375 0 19.2188C0 20.9531 1.3125 22.5 3 22.5H6L8.67188 23.2031C10.1719 23.6719 11.7188 24 13.7344 24C18.8906 24 24 21.4219 24 17.5781C24 14.3906 20.0156 12.75 15.7969 12.75ZM5.25 21H3C2.20312 21 1.5 20.1562 1.5 19.2188C1.5 18.2344 2.15625 17.4844 3 17.4844H5.25V21ZM9.04688 21.75L6.75 21.1875V17.4375C9.32812 17.2969 10.5 16.5 11.5781 15.75C15.8438 12.7031 22.5 14.8594 22.5 17.5781C22.5 20.4844 16.7812 24.0469 9.04688 21.75ZM19.7344 0C17.6719 0 16.1719 0.375 14.6719 0.84375L12 1.5H9C7.3125 1.5 6 3.04688 6 4.82812C6 6.65625 7.3125 8.0625 9 8.0625H12C14.8125 8.0625 15.75 8.85938 16.875 9.65625C18.2344 10.5938 20.1562 11.25 21.7969 11.25C26.0156 11.25 30 9.65625 30 6.46875C30 2.625 24.9844 0 19.7344 0ZM11.25 6.5625H9C8.15625 6.5625 7.5 5.8125 7.5 4.82812C7.5 3.89062 8.20312 3 9 3H11.25V6.5625ZM21.7969 9.75C20.4844 9.75 18.8906 9.1875 17.7656 8.39062C16.6406 7.64062 15.4688 6.75 12.75 6.5625V2.85938L15.0938 2.25C16.5 1.875 17.8594 1.5 19.7344 1.5C22.1719 1.5 28.5 2.71875 28.5 6.46875C28.5 8.625 25.125 9.75 21.7969 9.75Z" fill="#5C8EE6"/>
</svg>
