<svg width="21" height="24" viewBox="0 0 21 24" fill="none" xmlns="http://www.w3.org/2000/svg">
<path d="M18.1406 13.8281L17.3906 10.5938C17.0625 9.23438 15.8906 8.25 14.4844 8.25H6.375C4.96875 8.25 3.75 9.23438 3.42188 10.5938L2.67188 13.9219C1.54688 14.4844 0.75 15.6562 0.75 17.0156V19.5938C0.75 20.5312 1.35938 21.375 2.25 21.6562V23.25C2.25 23.6719 2.57812 24 3 24C3.375 24 3.75 23.6719 3.75 23.25V21.75H17.25V23.25C17.25 23.6719 17.5781 24 18 24C18.375 24 18.75 23.6719 18.75 23.25V21.6562C19.6406 21.375 20.2031 20.5312 20.25 19.5938V17.0156C20.25 15.6562 19.4062 14.3906 18.1406 13.8281ZM4.875 10.9219C5.0625 10.2656 5.67188 9.75 6.375 9.75H14.4844C15.1875 9.75 15.7969 10.2656 15.9375 10.9219L16.5469 13.5H4.3125L4.875 10.9219ZM18.75 19.5938C18.75 19.9688 18.4219 20.25 18.0469 20.25H2.90625C2.53125 20.25 2.25 19.9688 2.25 19.5938V17.0156C2.25 15.9375 3.14062 15 4.21875 15H16.7344C17.8125 15 18.75 15.9375 18.75 17.0156V19.5938ZM15.75 16.5C15.0938 16.5 14.625 17.0156 14.625 17.625C14.625 18.2812 15.0938 18.75 15.75 18.75C16.3594 18.75 16.875 18.2812 16.875 17.625C16.875 17.0156 16.3594 16.5 15.75 16.5ZM5.25 16.5C4.59375 16.5 4.125 17.0156 4.125 17.625C4.125 18.2812 4.59375 18.75 5.25 18.75C5.85938 18.75 6.375 18.2812 6.375 17.625C6.375 17.0156 5.85938 16.5 5.25 16.5ZM3.75 7.5C4.96875 7.5 6.04688 6.9375 6.70312 6.04688H14.25C14.9062 6.9375 15.9844 7.5 17.25 7.5C19.3125 7.5 21 5.85938 21 3.75C21 1.6875 19.3125 0 17.25 0C15.9844 0 14.9062 0.609375 14.25 1.54688H6.70312C6.04688 0.609375 4.96875 0 3.75 0C1.64062 0 0 1.6875 0 3.75C0 5.85938 1.64062 7.5 3.75 7.5ZM1.59375 3C1.92188 2.15625 2.76562 1.5 3.75 1.5C4.40625 1.5 5.0625 1.875 5.53125 2.4375C5.8125 2.8125 6.23438 3.04688 6.70312 3.04688H14.25C14.7188 3.04688 15.1406 2.8125 15.4219 2.4375C15.8906 1.875 16.5469 1.5 17.25 1.5C18.1875 1.5 19.0312 2.15625 19.3594 3H17.25V4.5H19.3594C19.0312 5.39062 18.1875 6 17.25 6C16.5469 6 15.8906 5.67188 15.4219 5.10938C15.1406 4.73438 14.7188 4.54688 14.25 4.54688H6.70312C6.23438 4.54688 5.8125 4.73438 5.53125 5.10938C5.0625 5.67188 4.40625 6 3.75 6C2.76562 6 1.92188 5.39062 1.59375 4.5H3.75V3H1.59375Z" fill="#5C8EE6"/>
</svg>
