<svg width="20" height="24" viewBox="0 0 20 24" fill="none" xmlns="http://www.w3.org/2000/svg">
<path d="M9.27428 0.609375C9.18053 0.234375 8.80553 -0.046875 8.38366 0.046875C7.96178 0.140625 7.72741 0.515625 7.82116 0.9375L8.89928 6.32812C9.32116 8.57812 8.52428 10.2188 6.50866 11.1094L6.03991 11.2969L6.46178 21.8906C6.46178 22.0781 6.41491 22.2656 6.27428 22.3594C6.22741 22.4531 6.13366 22.5 5.99303 22.5H4.58678C4.44616 22.5 4.35241 22.4531 4.25866 22.3594C4.16491 22.2656 4.07116 22.0781 4.07116 21.9375L4.49303 11.2969L4.02428 11.1094C2.00866 10.1719 1.21178 8.57812 1.63366 6.375L2.75866 0.9375C2.80553 0.515625 2.57116 0.140625 2.14928 0.046875C1.77428 -0.046875 1.35241 0.234375 1.25866 0.609375L0.133657 6.09375C-0.381968 8.8125 0.602407 10.9688 2.94616 12.2344L2.57116 21.8906C2.57116 22.4062 2.75866 22.9688 3.13366 23.3906C3.50866 23.8125 4.02428 24 4.58678 24H5.99303C6.55553 24 7.02428 23.8125 7.39928 23.3906C7.77428 22.9688 7.96178 22.4062 7.96178 21.8438L7.58678 12.2344C9.88366 11.0156 10.9149 8.76562 10.3993 6.04688L9.27428 0.609375ZM17.8524 0C16.3524 0 13.8212 2.0625 12.6962 4.73438C11.8993 6.60938 11.1024 10.3125 14.7587 14.2969L14.4305 21.75C14.3837 22.4062 14.618 23.0156 15.0399 23.4375C15.4149 23.8125 15.8837 24 16.3524 24H17.5712C18.6493 24 19.5399 23.0625 19.5399 21.8438V1.82812C19.5399 0.84375 18.7899 0 17.8524 0ZM18.0399 21.8438C18.0399 22.2656 17.7587 22.5 17.5712 22.5H16.3524C16.2587 22.5 16.1649 22.4531 16.118 22.4062C15.9774 22.2656 15.9305 22.0312 15.9305 21.8438L16.3055 13.7344L16.0712 13.5C12.9305 10.2188 13.2587 7.26562 14.0555 5.34375C15.1337 2.85938 17.243 1.5 17.8524 1.5C17.8993 1.5 18.0399 1.64062 18.0399 1.82812V21.8438ZM3.74303 8.25C3.74303 8.25 3.74303 8.25 3.78991 8.25C4.16491 8.25 4.49303 7.96875 4.49303 7.54688L4.86803 0.796875C4.91491 0.421875 4.58678 0.046875 4.16491 0.046875C3.78991 0 3.41491 0.328125 3.41491 0.75L3.03991 7.5C2.99303 7.875 3.32116 8.25 3.74303 8.25ZM6.78991 8.25C7.21178 8.25 7.53991 7.875 7.49303 7.5L7.11803 0.75C7.11803 0.328125 6.78991 0 6.36803 0.046875C5.94616 0.046875 5.61803 0.421875 5.66491 0.796875L6.03991 7.54688C6.03991 7.96875 6.36803 8.25 6.78991 8.25Z" fill="#5C8EE6"/>
</svg>
