<svg width="30" height="24" viewBox="0 0 30 24" fill="none" xmlns="http://www.w3.org/2000/svg">
<path d="M15 19.5C15.375 19.5 15.75 19.1719 15.75 18.75V17.25H17.25C17.625 17.25 18 16.9219 18 16.5C18 16.125 17.625 15.75 17.25 15.75H15.75V14.25C15.75 13.875 15.375 13.5 15 13.5C14.5781 13.5 14.25 13.875 14.25 14.25V15.75H12.75C12.3281 15.75 12 16.125 12 16.5C12 16.9219 12.3281 17.25 12.75 17.25H14.25V18.75C14.25 19.1719 14.5781 19.5 15 19.5ZM3.75 10.5C4.125 10.5 4.5 10.1719 4.5 9.75V7.5H6C6.375 7.5 6.75 7.17188 6.75 6.75C6.75 6.375 6.375 6 6 6H4.5V3.75C4.5 3.375 4.125 3 3.75 3C3.32812 3 3 3.375 3 3.75V6H0.75C0.328125 6 0 6.375 0 6.75C0 7.07812 0.328125 7.5 0.75 7.5H3V9.75C3 10.1719 3.32812 10.5 3.75 10.5ZM29.25 19.5H27V17.25C27 16.875 26.625 16.5 26.25 16.5C25.8281 16.5 25.5 16.875 25.5 17.25V19.5H23.25C22.8281 19.5 22.5 19.875 22.5 20.25C22.5 20.625 22.8281 21 23.25 21H25.5V23.25C25.5 23.6719 25.8281 24 26.25 24C26.625 24 27 23.6719 27 23.25V21H29.25C29.625 21 29.9531 20.6719 29.9531 20.2969C29.9531 19.9219 29.625 19.5 29.25 19.5ZM21.375 21.5625C20.8594 21.5625 20.0625 22.5 17.9531 22.5H13.2188C11.4375 22.5 9.79688 21.6562 8.76562 20.25L4.73438 14.9062C4.54688 14.6719 4.45312 14.4375 4.45312 14.1562C4.45312 13.5469 4.96875 13.125 5.53125 13.125C5.76562 13.125 6.14062 13.2188 6.42188 13.5938L8.01562 15.7031C8.29688 16.0781 8.76562 16.3125 9.1875 16.3125C9.375 16.3125 10.5 16.1719 10.5 15.0469C10.5 15.0469 10.5 15.0469 10.5 15V4.17188C10.5 3.60938 10.9219 3 11.625 3C12.2344 3 12.75 3.51562 12.75 4.125V11.25C12.75 11.3438 12.8438 12.0469 13.5 12.0469C13.875 12.0469 14.2031 11.6719 14.2031 11.2969V2.67188C14.2031 2.10938 14.625 1.5 15.3281 1.5C15.9375 1.5 16.4531 2.01562 16.4531 2.625V11.25C16.4531 11.3438 16.5469 12.0469 17.2031 12.0469C17.5781 12.0469 17.9531 11.6719 17.9531 11.2969V4.17188C17.9531 3.60938 18.375 3 19.0781 3C19.6875 3 20.2031 3.51562 20.2031 4.125V11.2031C20.2031 11.3438 20.2969 12 20.9531 12C21.3281 12 21.7031 11.6719 21.7031 11.2969V6.42188C21.7031 5.8125 22.125 5.25 22.8281 5.25C23.4375 5.25 23.9531 5.76562 23.9531 6.375V14.1094C23.9531 14.4844 24.2812 14.8594 24.7031 14.8594C25.0781 14.8594 25.5 14.4844 25.5 14.1094V6.46875C25.5 5.4375 24.7031 3.75 22.8281 3.75C22.4531 3.75 22.0781 3.84375 21.7031 3.98438C21.6562 2.625 20.4844 1.5 19.0781 1.5C18.6094 1.5 18.1875 1.64062 17.8125 1.82812C17.4844 0.796875 16.5 0 15.3281 0C14.1562 0 13.2188 0.796875 12.8438 1.875C12.4688 1.64062 12.0469 1.5 11.625 1.5C9.75 1.5 9 3.23438 9 4.26562V14.4375L7.54688 12.6094C7.07812 12 6.32812 11.625 5.53125 11.625C4.125 11.625 3 12.7031 3 14.1562C3 14.7188 3.14062 15.3281 3.51562 15.7969L7.59375 21.1406C8.85938 22.9219 10.9688 24 13.2188 24H18C19.5 24 22.125 23.2969 22.125 22.3125C22.125 22.0312 21.9375 21.5625 21.375 21.5625Z" fill="#5C8EE6"/>
</svg>
