<svg width="24" height="24" viewBox="0 0 24 24" fill="none" xmlns="http://www.w3.org/2000/svg">
<path d="M19.3393 9.375L16.6675 12H7.24558L14.6518 4.64062C14.9331 4.35938 14.9331 3.89062 14.6518 3.60938C14.3706 3.28125 13.855 3.28125 13.5737 3.60938L1.52683 15.6094C-0.254416 17.4375 -0.582541 20.3906 1.10496 22.3594C2.08933 23.4375 3.40183 24 4.76121 24C6.02683 24 7.24558 23.5312 8.18308 22.5938L20.4175 10.4062C20.6987 10.125 20.6987 9.65625 20.4175 9.375C20.1362 9.04688 19.6206 9.04688 19.3393 9.375ZM7.15183 21.5625C6.49558 22.1719 5.65183 22.5 4.76121 22.5C3.77683 22.5 2.88621 22.0781 2.22996 21.375C1.10496 20.0625 1.29246 18 2.60496 16.6875L5.74558 13.5H15.1675L7.15183 21.5625ZM23.7925 8.48438L15.5425 0.234375C15.4018 0.09375 15.2143 0 15.0268 0C14.7925 0 14.605 0.09375 14.4643 0.234375C14.1831 0.515625 14.1831 1.03125 14.4643 1.3125L22.7143 9.5625C22.855 9.70312 23.0425 9.75 23.2768 9.75C23.4643 9.75 23.6518 9.70312 23.7925 9.5625C24.0737 9.28125 24.0737 8.76562 23.7925 8.48438Z" fill="#5C8EE6"/>
</svg>
