<svg width="20" height="24" viewBox="0 0 20 24" fill="none" xmlns="http://www.w3.org/2000/svg">
<path d="M9.75 5.95312C10.9688 5.95312 12 4.92188 12 3.70312C12 2.71875 10.8281 0.9375 10.3594 0.234375C10.2188 0.09375 9.98438 0 9.75 0C9.46875 0 9.23438 0.09375 9.09375 0.28125C8.625 0.984375 7.5 2.76562 7.5 3.70312C7.5 4.96875 8.48438 5.95312 9.75 5.95312ZM9.75 2.10938C10.1719 2.85938 10.4531 3.51562 10.5 3.70312C10.5 4.125 10.125 4.45312 9.75 4.45312C9.32812 4.45312 9 4.125 9 3.70312C9 3.46875 9.28125 2.8125 9.75 2.10938ZM16.5 5.95312C17.7188 5.95312 18.75 4.96875 18.75 3.70312C18.75 2.76562 17.5781 0.984375 17.1094 0.28125C16.9688 0.09375 16.7344 0 16.5 0C16.2188 0 15.9844 0.09375 15.8438 0.28125C15.375 0.984375 14.25 2.76562 14.25 3.70312C14.25 4.96875 15.2344 5.95312 16.5 5.95312ZM16.5 2.10938C16.9219 2.85938 17.2031 3.51562 17.25 3.70312C17.25 4.125 16.875 4.45312 16.5 4.45312C16.0781 4.45312 15.75 4.125 15.75 3.70312C15.75 3.46875 16.0312 2.8125 16.5 2.10938ZM3 5.95312C4.21875 5.95312 5.25 4.96875 5.25 3.70312C5.25 2.76562 4.07812 0.984375 3.60938 0.28125C3.46875 0.09375 3.23438 0 3 0C2.71875 0 2.48438 0.09375 2.34375 0.28125C1.875 0.984375 0.75 2.76562 0.75 3.70312C0.75 4.96875 1.73438 5.95312 3 5.95312ZM3 2.10938C3.42188 2.8125 3.70312 3.46875 3.75 3.70312C3.75 4.125 3.375 4.45312 3 4.45312C2.57812 4.45312 2.25 4.125 2.25 3.70312C2.25 3.46875 2.53125 2.8125 3 2.10938ZM15 16.4531C14.3438 16.4531 13.875 16.9688 13.875 17.5781C13.875 18.2344 14.3438 18.7031 15 18.7031C15.6094 18.7031 16.125 18.2344 16.125 17.5781C16.125 16.9688 15.6094 16.4531 15 16.4531ZM17.3906 13.7812L16.6406 10.5469C16.3125 9.1875 15.1406 8.20312 13.7344 8.20312H5.57812C4.21875 8.20312 3 9.1875 2.67188 10.5469L1.92188 13.875C0.796875 14.4375 0 15.6094 0 16.9688V19.5469C0 20.4844 0.609375 21.3281 1.5 21.6094V23.2031C1.5 23.625 1.82812 23.9531 2.25 23.9531C2.625 23.9531 3 23.625 3 23.2031V21.7031H16.5V23.2031C16.5 23.625 16.8281 23.9531 17.25 23.9531C17.625 23.9531 18 23.625 18 23.2031V21.6094C18.8906 21.3281 19.4531 20.4844 19.5 19.5469V16.9688C19.5 15.6094 18.6562 14.3438 17.3906 13.7812ZM4.125 10.875C4.3125 10.2188 4.92188 9.75 5.625 9.75H13.7344C14.4375 9.75 15.0469 10.2188 15.1875 10.875L15.7969 13.5H3.5625L4.125 10.875ZM18 19.5469C18 19.9219 17.6719 20.25 17.2969 20.25H2.15625C1.78125 20.2031 1.5 19.9219 1.5 19.5469V16.9688C1.5 15.8906 2.39062 15 3.46875 15H15.9844C17.0625 15 18 15.8906 18 16.9688V19.5469ZM4.5 16.4531C3.84375 16.4531 3.375 16.9688 3.375 17.5781C3.375 18.2344 3.84375 18.7031 4.5 18.7031C5.10938 18.7031 5.625 18.2344 5.625 17.5781C5.625 16.9688 5.10938 16.4531 4.5 16.4531Z" fill="#5C8EE6"/>
</svg>
