<svg width="30" height="24" viewBox="0 0 30 24" fill="none" xmlns="http://www.w3.org/2000/svg">
<path d="M29.8813 5.54898C29.6938 4.98648 29.3188 4.56461 28.8032 4.28336L20.5063 0.0646075C20.1782 -0.0760175 19.8032 0.0177325 19.5688 0.298983C18.8188 1.37711 16.9438 2.08023 14.9751 2.08023C13.0532 2.08023 11.1782 1.37711 10.4282 0.298983C10.1938 0.0177325 9.81882 -0.0760175 9.4907 0.0646075L1.19382 4.28336C0.678196 4.56461 0.303196 4.98648 0.115696 5.54898C-0.0718041 6.11148 -0.0249291 6.67398 0.209446 7.18961L2.50632 11.924C3.02195 12.9552 4.33445 13.3771 5.3657 12.9084L7.52195 11.9709V21.8146C7.52195 23.0334 8.45945 23.9709 9.6782 23.9709H20.3188C21.5376 23.9709 22.5219 23.0334 22.5219 21.8146L22.4751 11.9709L24.5844 12.8615C25.6626 13.3771 26.9751 12.9552 27.4907 11.8771L29.7876 7.18961C30.0219 6.67398 30.0688 6.11148 29.8813 5.54898ZM28.4282 6.53336L26.1782 11.2209C25.9907 11.549 25.5688 11.6896 25.2407 11.5021L22.0532 10.1427C21.8188 10.049 21.5376 10.0959 21.3501 10.2365C21.1157 10.3771 20.9751 10.6115 20.9751 10.8459L21.0219 21.8146C21.0219 22.1896 20.6938 22.4709 20.3188 22.4709H9.6782C9.3032 22.4709 9.02195 22.1896 9.02195 21.8146V10.8459C9.02195 10.6115 8.88132 10.3771 8.64695 10.2365C8.5532 10.1427 8.41257 10.0959 8.27195 10.0959C8.13132 10.0959 8.03757 10.1427 7.94382 10.1427L4.75632 11.5021C4.4282 11.6896 4.00632 11.549 3.8657 11.2209L1.56882 6.53336C1.47507 6.34586 1.47507 6.20523 1.52195 6.01773C1.56882 5.87711 1.70945 5.73648 1.89695 5.64273L9.63132 1.65836C10.8032 2.87711 12.8188 3.58023 15.0219 3.58023C17.2251 3.58023 19.1938 2.87711 20.3657 1.65836L28.1001 5.64273C28.2876 5.73648 28.4282 5.87711 28.4751 6.01773C28.5219 6.20523 28.5219 6.34586 28.4282 6.53336Z" fill="#5C8EE6"/>
</svg>
