<svg width="18" height="24" viewBox="0 0 18 24" fill="none" xmlns="http://www.w3.org/2000/svg">
<path d="M16.5 0H1.5C0.65625 0 0 0.703125 0 1.5V15C0 16.6875 1.3125 18 3 18H6V21C6 22.6875 7.3125 24 9 24C10.6406 24 12 22.6875 12 21V18H15C16.6406 18 18 16.6875 18 15V1.5C18 0.703125 17.2969 0 16.5 0ZM16.5 15C16.5 15.8438 15.7969 16.5 15 16.5H10.5V21C10.5 21.8438 9.79688 22.5 9 22.5C8.15625 22.5 7.5 21.8438 7.5 21V16.5H3C2.15625 16.5 1.5 15.8438 1.5 15V13.5H16.5V15ZM16.5 12H1.5V1.5H16.5V12Z" fill="#5C8EE6"/>
</svg>
