<svg width="35" height="26" viewBox="0 0 35 26" fill="none" xmlns="http://www.w3.org/2000/svg">
<path d="M1.75 16.5H20.125C21.0547 16.5 21.875 15.7344 21.875 14.75V2.5C21.875 1.57031 21.0547 0.75 20.125 0.75H1.75C0.765625 0.75 0 1.57031 0 2.5V14.75C0 15.7344 0.765625 16.5 1.75 16.5ZM1.75 2.5H20.125V14.75H1.75V2.5ZM33.9609 10.2656L30.7344 7.03906C30.0781 6.38281 29.2031 6.05469 28.2734 6.05469H24.5C24.0078 6.05469 23.625 6.4375 23.625 6.92969V18.3047H12.4688C11.8125 17.7578 10.9922 17.4297 10.0625 17.4297C8.80469 17.4297 7.71094 17.9766 7 18.9062C6.23438 17.9766 5.14062 17.375 3.9375 17.375C1.75 17.375 0 19.1797 0 21.3125C0 23.5 1.75 25.25 3.9375 25.25C5.14062 25.25 6.23438 24.7031 7 23.7734C7.71094 24.7031 8.80469 25.25 10.0625 25.25C12.1953 25.25 14 23.5 14 21.3125C14 20.875 13.8906 20.4375 13.7266 20H24.5547C24.3906 20.7656 24.4453 21.5312 24.7188 22.3516C25.1562 23.7188 26.3594 24.8125 27.7812 25.1406C30.625 25.8516 33.25 23.6641 33.25 20.875C33.25 20.6016 33.1953 20.3281 33.1406 20H34.125C34.5625 20 35 19.6172 35 19.125V12.7266C35 11.7969 34.6172 10.9219 33.9609 10.2656ZM3.9375 23.5C2.67969 23.5 1.75 22.5703 1.75 21.3125C1.75 20.1094 2.67969 19.125 3.9375 19.125C5.14062 19.125 6.125 20.1094 6.125 21.3125C6.125 22.5703 5.14062 23.5 3.9375 23.5ZM10.0625 23.5C8.80469 23.5 7.875 22.5703 7.875 21.3125C7.875 20.1094 8.80469 19.125 10.0625 19.125C11.2656 19.125 12.25 20.1094 12.25 21.3125C12.25 22.5703 11.2656 23.5 10.0625 23.5ZM25.375 7.75H28.2734C28.7656 7.75 29.2031 7.96875 29.5312 8.29688L32.4844 11.25H25.375V7.75ZM28.875 23.5C27.3984 23.5 26.25 22.3516 26.25 20.875C26.25 19.4531 27.3984 18.25 28.875 18.25C30.2969 18.25 31.5 19.4531 31.5 20.875C31.5 22.3516 30.2969 23.5 28.875 23.5ZM33.25 18.25H32.3203C31.5547 17.2109 30.2969 16.5 28.875 16.5C27.3984 16.5 26.1953 17.2109 25.375 18.25V13H33.25V18.25ZM5.6875 13H6.5625C6.78125 13 7 12.8359 7 12.5625V4.6875C7 4.46875 6.78125 4.25 6.5625 4.25H5.6875C5.41406 4.25 5.25 4.46875 5.25 4.6875V12.5625C5.25 12.8359 5.41406 13 5.6875 13ZM10.9375 13H11.8125C12.0312 13 12.25 12.8359 12.25 12.5625V4.6875C12.25 4.46875 12.0312 4.25 11.8125 4.25H10.9375C10.6641 4.25 10.5 4.46875 10.5 4.6875V12.5625C10.5 12.8359 10.6641 13 10.9375 13ZM16.1875 13H17.0625C17.2812 13 17.5 12.8359 17.5 12.5625V4.6875C17.5 4.46875 17.2812 4.25 17.0625 4.25H16.1875C15.9141 4.25 15.75 4.46875 15.75 4.6875V12.5625C15.75 12.8359 15.9141 13 16.1875 13Z" fill="#5C8EE6"/>
</svg>
