<svg width="32" height="25" viewBox="0 0 32 25" fill="none" xmlns="http://www.w3.org/2000/svg">
<path d="M9.625 7.875C8.64062 7.875 7.875 8.69531 7.875 9.625C7.875 10.6094 8.64062 11.375 9.625 11.375C10.5547 11.375 11.375 10.6094 11.375 9.625C11.375 8.69531 10.5547 7.875 9.625 7.875ZM15.75 0C7.05469 0 0 7.05469 0 15.75C0 18.6484 0.765625 21.3828 2.13281 23.6797C2.40625 24.2266 3.00781 24.5547 3.60938 24.5547H27.8359C28.4375 24.5547 29.0391 24.2266 29.3672 23.6797C30.6797 21.3828 31.5 18.6484 31.5 15.75C31.5 7.05469 24.4453 0 15.75 0ZM15.75 21.875C14.4922 21.875 13.5625 20.9453 13.5625 19.6875C13.5625 18.4844 14.4922 17.5 15.75 17.5C16.9531 17.5 17.9375 18.4844 17.9375 19.6875C17.9375 20.9453 16.9531 21.875 15.75 21.875ZM27.3438 21.875H20.0156C20.3438 21.2188 20.5625 20.5078 20.5625 19.6875C20.5625 19.3594 20.5078 19.0312 20.3984 18.7031L25.4297 16.5703C26.0859 16.2422 26.4141 15.4766 26.1406 14.8203C25.8125 14.1641 25.0469 13.8359 24.3906 14.1094L19.1953 16.3516C18.3203 15.4766 17.0625 14.875 15.75 14.875C13.0703 14.875 10.9375 17.0625 10.9375 19.6875C10.9375 20.5078 11.1016 21.2188 11.4844 21.875H4.10156C3.11719 20.0156 2.625 17.9375 2.625 15.75C2.625 8.53125 8.47656 2.625 15.75 2.625C22.9688 2.625 28.875 8.53125 28.875 15.75C28.875 17.9375 28.3281 20.0156 27.3438 21.875ZM7 14C6.01562 14 5.25 14.8203 5.25 15.75C5.25 16.7344 6.01562 17.5 7 17.5C7.92969 17.5 8.75 16.7344 8.75 15.75C8.75 14.8203 7.92969 14 7 14ZM15.75 5.25C14.7656 5.25 14 6.07031 14 7C14 7.98438 14.7656 8.75 15.75 8.75C16.6797 8.75 17.5 7.98438 17.5 7C17.5 6.07031 16.6797 5.25 15.75 5.25ZM21.875 7.875C20.8906 7.875 20.125 8.69531 20.125 9.625C20.125 10.6094 20.8906 11.375 21.875 11.375C22.8047 11.375 23.625 10.6094 23.625 9.625C23.625 8.69531 22.8047 7.875 21.875 7.875Z" fill="#5C8EE6"/>
</svg>
