<svg width="29" height="29" viewBox="0 0 29 29" fill="none" xmlns="http://www.w3.org/2000/svg">
<path d="M27.2216 5.35938L22.6825 0.820312C22.1903 0.328125 21.4794 0 20.8232 0H9.66691C8.19035 0.0546875 7.04191 1.20312 7.04191 2.67969V9.07812C6.71379 9.07812 6.38566 9.02344 5.67473 8.80469C5.62004 8.80469 5.51066 8.80469 5.40129 8.80469C5.12785 8.80469 4.85441 8.91406 4.69035 9.07812C3.70598 10.1172 3.76066 10.0625 2.39348 10.4453C2.01066 10.5547 1.73723 10.8281 1.62785 11.2109C1.29973 12.5781 1.29973 12.5234 0.31535 13.5078C0.0419129 13.7812 -0.0674621 14.2188 0.0419129 14.6016C0.424725 15.9141 0.424725 15.9141 0.0419129 17.2266C-0.0674621 17.6094 0.0419129 18.0469 0.31535 18.3203C1.29973 19.3047 1.29973 19.3047 1.62785 20.6172C1.73723 21 2.01066 21.2734 2.39348 21.3828C2.50285 21.4375 2.55754 21.4375 2.66691 21.4375V27.125C2.66691 27.4531 2.77629 27.7266 3.04973 27.8906C3.32316 28.0547 3.65129 28.0547 3.92473 27.9453L7.04191 26.3594L10.1044 27.9453C10.2685 28 10.3779 28 10.5419 28H25.4169C26.8388 28 28.0419 26.8516 28.0419 25.4297V7.21875C28.0419 6.5625 27.7138 5.85156 27.2216 5.35938ZM21.0419 1.80469C21.1513 1.85938 21.3153 1.91406 21.4247 2.02344L26.0185 6.61719C26.1278 6.72656 26.1825 6.89062 26.2372 7.05469H21.0419V1.80469ZM1.8466 17.3359C2.12004 16.1328 2.12004 15.6953 1.8466 14.4922C2.66691 13.6172 2.88566 13.2344 3.21379 12.0312C4.41691 11.7031 4.74504 11.4844 5.62004 10.6094C6.16691 10.7734 6.54973 10.8281 7.04191 10.8281C7.47941 10.8281 7.86223 10.7734 8.4091 10.6094C9.22941 11.4844 9.61223 11.7031 10.8154 12.0312C11.1435 13.2344 11.3075 13.5625 12.1825 14.4922C11.8544 15.6953 11.8544 16.1328 12.1825 17.3359C11.3622 18.2109 11.1435 18.5938 10.8154 19.7969C9.99504 20.0156 9.50285 20.1797 8.73723 20.8359C8.19035 20.6172 7.64348 20.5078 7.04191 20.5078C6.38566 20.5078 5.83879 20.6172 5.29191 20.8906C4.52629 20.2344 4.0341 20.0156 3.21379 19.7969C2.88566 18.5938 2.7216 18.2656 1.8466 17.3359ZM7.42473 24.6094C7.15129 24.5 6.87785 24.5 6.60441 24.6094L4.41691 25.7578V22.4219C4.41691 22.4766 4.41691 22.4766 4.41691 22.4766C4.63566 22.6953 4.9091 22.75 5.12785 22.75C5.3466 22.75 5.51066 22.6953 5.72941 22.6406C6.11223 22.3672 6.54973 22.2578 7.04191 22.2578C7.47941 22.2578 7.91691 22.3672 8.29973 22.5859C8.51848 22.75 8.68254 22.75 8.90129 22.75C9.17473 22.75 9.39348 22.6953 9.61223 22.4766C9.61223 22.4766 9.61223 22.4766 9.66691 22.4219V25.7578L7.42473 24.6094ZM26.2919 25.4297C26.2919 25.8672 25.8544 26.3047 25.4169 26.3047H11.4169V21.4375C11.4716 21.4375 11.5263 21.4375 11.6357 21.3828C12.0185 21.2734 12.2919 21 12.4013 20.6172C12.7294 19.25 12.7294 19.3047 13.7138 18.3203C13.9872 18.0469 14.0966 17.6094 13.9872 17.2266C13.6044 15.9141 13.6044 15.9141 13.9872 14.6016C14.0966 14.2188 13.9872 13.7812 13.7138 13.5078C12.7294 12.5234 12.7294 12.5234 12.4013 11.2109C12.2919 10.8281 12.0185 10.5547 11.6357 10.4453C10.3232 10.0625 10.3232 10.1172 9.33879 9.07812C9.17473 8.91406 8.95598 8.85938 8.79191 8.80469V2.67969C8.79191 2.1875 9.17473 1.75 9.66691 1.75H19.2919V7.49219C19.2919 8.20312 19.8388 8.75 20.6044 8.75H26.2919V25.4297Z" fill="#5C8EE6"/>
</svg>
